<?xml version="1.0" encoding="UTF-8" standalone="no"?>
<!-- Created with Inkscape (http://www.inkscape.org/) -->

<svg
   xmlns:dc="http://purl.org/dc/elements/1.1/"
   xmlns:cc="http://creativecommons.org/ns#"
   xmlns:rdf="http://www.w3.org/1999/02/22-rdf-syntax-ns#"
   xmlns:svg="http://www.w3.org/2000/svg"
   xmlns="http://www.w3.org/2000/svg"
   xmlns:sodipodi="http://sodipodi.sourceforge.net/DTD/sodipodi-0.dtd"
   xmlns:inkscape="http://www.inkscape.org/namespaces/inkscape"
   width="64px"
   height="64px"
   id="svg3238"
   version="1.1"
   inkscape:version="0.48.5 r10040"
   sodipodi:docname="button_ne.svg">
  <defs
     id="defs3240" />
  <sodipodi:namedview
     id="base"
     pagecolor="#ffffff"
     bordercolor="#666666"
     borderopacity="1.0"
     inkscape:pageopacity="0.0"
     inkscape:pageshadow="2"
     inkscape:zoom="5.5"
     inkscape:cx="-2.1818182"
     inkscape:cy="46.545455"
     inkscape:current-layer="layer1"
     showgrid="true"
     inkscape:document-units="px"
     inkscape:grid-bbox="true"
     inkscape:window-width="1029"
     inkscape:window-height="423"
     inkscape:window-x="175"
     inkscape:window-y="175"
     inkscape:window-maximized="0" />
  <metadata
     id="metadata3243">
    <rdf:RDF>
      <cc:Work
         rdf:about="">
        <dc:format>image/svg+xml</dc:format>
        <dc:type
           rdf:resource="http://purl.org/dc/dcmitype/StillImage" />
        <dc:title />
      </cc:Work>
    </rdf:RDF>
  </metadata>
  <g
     id="layer1"
     inkscape:label="Layer 1"
     inkscape:groupmode="layer">
    <path
       style="fill:#000000;fill-opacity:0;fill-rule:nonzero"
       inkscape:connector-curvature="0"
       d="m 2.104244,12.069685 0,0 c 0,-5.5037909 4.22587,-9.9654413 9.438734,-9.9654413 l 40.914044,0 c 2.503342,0 4.904065,1.049946 6.674206,2.9188155 1.770078,1.8688674 2.764528,4.4036389 2.764528,7.0466258 l 0,39.860649 c 0,5.503729 -4.22587,9.965422 -9.438734,9.965422 l -40.914044,0 c -5.212864,0 -9.438734,-4.461693 -9.438734,-9.965422 z"
       id="path3121" />
    <path
       style="fill-rule:nonzero;stroke:#666666;stroke-width:4.20848799000000010;stroke-linecap:butt;stroke-linejoin:round;fill:none"
       inkscape:connector-curvature="0"
       d="m 2.104244,12.069685 0,0 c 0,-5.5037909 4.22587,-9.9654413 9.438734,-9.9654413 l 40.914044,0 c 2.503342,0 4.904065,1.049946 6.674206,2.9188155 1.770078,1.8688674 2.764528,4.4036389 2.764528,7.0466258 l 0,39.860649 c 0,5.503729 -4.22587,9.965422 -9.438734,9.965422 l -40.914044,0 c -5.212864,0 -9.438734,-4.461693 -9.438734,-9.965422 z"
       id="path3123" />
    <path
       style="fill:#000000;fill-opacity:0;fill-rule:nonzero"
       inkscape:connector-curvature="0"
       d="M 11.363543,52.623957 52.6435,11.355544"
       id="path3149" />
    <path
       style="fill-rule:evenodd;stroke:#666666;stroke-width:4.20848799;stroke-linecap:butt;stroke-linejoin:round"
       inkscape:connector-curvature="0"
       d="M 11.363543,52.623957 34.799166,29.194861"
       id="path3151" />
    <path
       style="fill:#666666;fill-rule:evenodd;stroke:#666666;stroke-width:4.20848799;stroke-linecap:butt"
       inkscape:connector-curvature="0"
       d="m 39.450563,34.381332 8.845136,-18.67923 -18.147868,8.306262 z"
       id="path3153" />
  </g>
</svg>
