<?xml version="1.0" encoding="UTF-8" standalone="no"?>
<!-- Created with Inkscape (http://www.inkscape.org/) -->

<svg
   xmlns:dc="http://purl.org/dc/elements/1.1/"
   xmlns:cc="http://creativecommons.org/ns#"
   xmlns:rdf="http://www.w3.org/1999/02/22-rdf-syntax-ns#"
   xmlns:svg="http://www.w3.org/2000/svg"
   xmlns="http://www.w3.org/2000/svg"
   xmlns:sodipodi="http://sodipodi.sourceforge.net/DTD/sodipodi-0.dtd"
   xmlns:inkscape="http://www.inkscape.org/namespaces/inkscape"
   width="64px"
   height="64px"
   id="svg3238"
   version="1.1"
   inkscape:version="0.48.5 r10040"
   sodipodi:docname="button_e.svg">
  <defs
     id="defs3240" />
  <sodipodi:namedview
     id="base"
     pagecolor="#ffffff"
     bordercolor="#666666"
     borderopacity="1.0"
     inkscape:pageopacity="0.0"
     inkscape:pageshadow="2"
     inkscape:zoom="5.5"
     inkscape:cx="-2.1818182"
     inkscape:cy="39.272728"
     inkscape:current-layer="layer1"
     showgrid="true"
     inkscape:document-units="px"
     inkscape:grid-bbox="true"
     inkscape:window-width="931"
     inkscape:window-height="668"
     inkscape:window-x="651"
     inkscape:window-y="240"
     inkscape:window-maximized="0" />
  <metadata
     id="metadata3243">
    <rdf:RDF>
      <cc:Work
         rdf:about="">
        <dc:format>image/svg+xml</dc:format>
        <dc:type
           rdf:resource="http://purl.org/dc/dcmitype/StillImage" />
        <dc:title />
      </cc:Work>
    </rdf:RDF>
  </metadata>
  <g
     id="layer1"
     inkscape:label="Layer 1"
     inkscape:groupmode="layer">
    <path
       style="fill:#000000;fill-opacity:0;fill-rule:nonzero"
       inkscape:connector-curvature="0"
       d="m 2.104244,12.069685 0,0 c 0,-5.5037262 4.22587,-9.9654413 9.438734,-9.9654413 l 40.914044,0 c 2.503342,0 4.904065,1.049946 6.674206,2.9188155 1.77008,1.868932 2.764528,4.4036389 2.764528,7.0466258 l 0,39.860649 c 0,5.503794 -4.22587,9.965422 -9.438734,9.965422 l -40.914044,0 c -5.212864,0 -9.438734,-4.461628 -9.438734,-9.965422 z"
       id="path3133" />
    <path
       style="fill-rule:nonzero;stroke:#666666;stroke-width:4.20848799000000010;stroke-linecap:butt;stroke-linejoin:round;fill:none"
       inkscape:connector-curvature="0"
       d="m 2.104244,12.069685 0,0 c 0,-5.5037262 4.22587,-9.9654413 9.438734,-9.9654413 l 40.914044,0 c 2.503342,0 4.904065,1.049946 6.674206,2.9188155 1.77008,1.868932 2.764528,4.4036389 2.764528,7.0466258 l 0,39.860649 c 0,5.503794 -4.22587,9.965422 -9.438734,9.965422 l -40.914044,0 c -5.212864,0 -9.438734,-4.461628 -9.438734,-9.965422 z"
       id="path3135" />
    <path
       style="fill:#000000;fill-opacity:0;fill-rule:nonzero"
       inkscape:connector-curvature="0"
       d="M 9.1894171,32.393482 54.855411,31.576269"
       id="path3179" />
    <path
       style="fill-rule:evenodd;stroke:#666666;stroke-width:4.20848799;stroke-linecap:butt;stroke-linejoin:round"
       inkscape:connector-curvature="0"
       d="M 9.1894171,32.393482 30.284424,32.015989"
       id="path3181" />
    <path
       style="fill:#666666;fill-rule:evenodd;stroke:#666666;stroke-width:4.20848799;stroke-linecap:butt"
       inkscape:connector-curvature="0"
       d="M 30.399105,39.157601 48.868656,31.683448 30.169805,24.87442 z"
       id="path3183" />
  </g>
</svg>
