<?xml version="1.0" encoding="UTF-8" standalone="no"?>
<!-- Created with Inkscape (http://www.inkscape.org/) -->

<svg
   xmlns:dc="http://purl.org/dc/elements/1.1/"
   xmlns:cc="http://creativecommons.org/ns#"
   xmlns:rdf="http://www.w3.org/1999/02/22-rdf-syntax-ns#"
   xmlns:svg="http://www.w3.org/2000/svg"
   xmlns="http://www.w3.org/2000/svg"
   xmlns:sodipodi="http://sodipodi.sourceforge.net/DTD/sodipodi-0.dtd"
   xmlns:inkscape="http://www.inkscape.org/namespaces/inkscape"
   width="64px"
   height="64px"
   id="svg3238"
   version="1.1"
   inkscape:version="0.48.5 r10040"
   sodipodi:docname="button_empty.svg">
  <defs
     id="defs3240" />
  <sodipodi:namedview
     id="base"
     pagecolor="#ffffff"
     bordercolor="#666666"
     borderopacity="1.0"
     inkscape:pageopacity="0.0"
     inkscape:pageshadow="2"
     inkscape:zoom="5.5"
     inkscape:cx="-2.1818182"
     inkscape:cy="24.727273"
     inkscape:current-layer="layer1"
     showgrid="true"
     inkscape:document-units="px"
     inkscape:grid-bbox="true"
     inkscape:window-width="815"
     inkscape:window-height="666"
     inkscape:window-x="175"
     inkscape:window-y="175"
     inkscape:window-maximized="0" />
  <metadata
     id="metadata3243">
    <rdf:RDF>
      <cc:Work
         rdf:about="">
        <dc:format>image/svg+xml</dc:format>
        <dc:type
           rdf:resource="http://purl.org/dc/dcmitype/StillImage" />
      </cc:Work>
    </rdf:RDF>
  </metadata>
  <g
     id="layer1"
     inkscape:label="Layer 1"
     inkscape:groupmode="layer">
    <path
       style="fill:#000000;fill-opacity:0;fill-rule:nonzero"
       inkscape:connector-curvature="0"
       d="m 28.128838,12.782245 0,0 c 0,-2.54547 2.06354,-4.60901 4.60901,-4.60901 l 19.97882,0 c 1.22238,0 2.39471,0.4856 3.25906,1.34995 0.86438,0.86438 1.34998,2.03668 1.34998,3.25906 l 0,18.43552 c 0,2.5455 -2.06354,4.609 -4.60904,4.609 l -19.97882,0 c -2.54547,0 -4.60901,-2.0635 -4.60901,-4.609 z"
       id="path3129" />
    <path
       style="fill-rule:nonzero;stroke:#666666;stroke-width:4.20848799000000010;stroke-linecap:butt;stroke-linejoin:round;fill:none"
       inkscape:connector-curvature="0"
       d="m 2.104244,12.069685 0,0 c 0,-5.5037262 4.22587,-9.9654413 9.438672,-9.9654413 l 40.914106,0 c 2.503281,0 4.904065,1.049946 6.674145,2.9188155 1.770141,1.868932 2.764589,4.4036389 2.764589,7.0466258 l 0,39.860649 c 0,5.503794 -4.22587,9.965422 -9.438734,9.965422 l -40.914106,0 c -5.212802,0 -9.438672,-4.461628 -9.438672,-9.965422 z"
       id="path3131" />
  </g>
</svg>
